<?xml version="1.0" encoding="UTF-8"?>
<svg width="512px" height="512px" viewBox="0 0 512 512" version="1.1" xmlns="http://www.w3.org/2000/svg" xmlns:xlink="http://www.w3.org/1999/xlink">
<style>
    <!-- circle {
      fill: #ffffff;
    }
    @media (prefers-color-scheme: dark) {
      circle {
        fill: #0E0E0E;
      }
    } -->
  </style>
    <g id="favicon" stroke="none" stroke-width="1" fill="none" fill-rule="evenodd">
        <g id="Group">
            <circle id="Oval" fill="#FFFFFF" cx="256" cy="256" r="256"></circle>
            <path d="M317.769163,225.663407 C317.401224,225.588392 317.031988,225.549912 316.589466,225.475114 L316.146729,225.403774 L315.409986,225.292225 C313.895643,225.10912 312.608289,224.959307 311.203548,224.774473 L309.248845,224.628335 L309.174047,224.628335 C308.623652,224.555266 308.144596,224.520461 307.738393,224.520461 C307.255662,224.480035 306.851405,224.480035 306.408884,224.445446 L305.929396,224.408912 C303.899894,224.258883 301.795162,224.224078 299.102851,224.224078 C296.26289,224.224078 293.571228,224.333897 290.915668,224.480035 C288.331664,224.666815 285.822674,224.924502 283.38697,225.292225 L283.279096,225.330705 L277.485462,226.217477 C276.121579,226.471705 274.755103,226.729608 273.391005,227.025775 C233.425954,235.834694 201.086881,264.774329 187.625545,303.042581 C195.296706,307.305226 203.986941,309.572958 212.929459,309.572958 C217.720665,309.572958 222.391458,308.940198 226.813428,307.693053 C227.513636,307.495681 228.16261,307.281662 228.81742,307.071319 C237.520626,289.795047 252.349952,276.200544 270.477974,269.119555 C273.208333,268.047949 276.046565,267.126156 278.926952,266.350717 L281.357036,265.760112 C282.207273,265.538959 282.982713,265.392605 283.758152,265.242576 C284.422042,265.096222 285.087661,264.950084 285.751551,264.838319 C287.485534,264.542152 289.253673,264.320999 291.023542,264.138111 L291.394724,264.09963 C293.457517,263.880207 295.897545,263.733853 299.102851,263.733853 C302.166344,263.733853 305.18941,263.916958 308.1059,264.24966 C309.506965,264.396014 310.836474,264.578902 312.200356,264.838319 C313.158468,264.988348 314.080477,265.134702 314.967033,265.321266 C315.775547,265.46762 316.589466,265.650509 317.401224,265.871661 C318.655719,266.168044 319.945235,266.500746 321.23648,266.905003 C324.080117,267.718706 326.917917,268.748157 329.794845,269.966334 C331.274168,270.595202 332.971616,271.332378 334.775857,272.290489 C335.405159,272.621461 336.030352,272.954379 336.659653,273.325777 C337.802815,273.912707 338.943599,274.580272 340.086977,275.28048 L340.273541,275.426834 C341.304505,276.017439 342.341739,276.718079 343.371406,277.418288 C345.918875,279.151838 348.314586,280.998883 350.603937,283.025142 C367.832432,297.894678 377.864932,319.587298 377.864932,342.530522 C377.864932,385.948407 342.563107,421.29217 299.102851,421.29217 C278.26263,421.29217 258.556707,413.042727 243.950263,398.709102 C233.663968,400.960405 223.243425,402.165394 212.929459,402.165394 C207.379244,402.165394 201.885884,401.823397 196.443327,401.209012 C217.329811,437.752577 256.391012,460.8 299.102851,460.8 C364.327067,460.8 417.374707,407.753874 417.374707,342.530522 C417.374707,284.133499 375.577311,234.995265 317.769163,225.663407" id="Fill-1" fill="#CF9080"></path>
            <path d="M181.203466,84.5481355 L246.308365,84.48 L256,94.5857161 L213.749252,133.12 L171.52,94.6096194 L181.203466,84.5481355 Z M241.772126,372.845 C244.064106,372.289954 246.319024,371.659514 248.539481,370.957582 C284.062459,359.917526 312.693243,332.22022 325.12,297.386816 L323.942692,296.739695 C323.711652,296.600608 323.481045,296.486869 323.24632,296.365981 C321.981017,295.695245 320.979915,295.277336 320.111022,294.910771 C318.14913,294.078634 316.345239,293.429996 314.643864,292.942543 L314.060845,292.77031 C313.386147,292.561463 312.715133,292.389013 312.06601,292.238877 L310.203383,291.813602 C309.748672,291.718277 309.271637,291.652417 308.780514,291.575291 L307.918989,291.428839 C307.288072,291.307734 306.675577,291.230824 306.02667,291.161281 C301.52377,290.648047 297.655254,290.710441 294.842675,291.007246 L294.285231,291.062274 C293.247934,291.172113 292.037465,291.3151 290.856906,291.51658 L286.18907,292.572295 C285.402753,292.786775 284.649163,293.021402 283.902725,293.259496 C275.30352,310.239332 260.733681,323.742434 242.993648,330.920995 C240.25606,332.064452 237.410537,333.030259 234.522968,333.840514 C227.719201,335.76303 220.581228,336.726887 213.366531,336.726887 C197.795589,336.726887 182.671773,332.178191 169.687572,323.564785 C167.100181,321.825552 164.621375,319.976263 162.289516,317.978571 C144.611037,302.96913 134.331263,281.050419 134.331263,257.718527 C134.331263,214.207374 169.798974,178.790976 213.366531,178.790976 C234.198514,178.790976 253.951804,187.063598 268.59165,201.363958 C270.157565,201.02859 271.671897,200.735251 273.167807,200.451229 L280.054366,199.362583 C283.061357,198.911743 286.192538,198.570959 289.635601,198.321816 L290.090312,198.292353 C297.644201,197.874659 303.038318,197.841513 308.571797,198.255739 L308.864824,198.277837 C309.143763,198.292353 309.407747,198.303402 309.671514,198.321816 C310.511148,198.351064 311.365303,198.409558 312.231162,198.501416 L316.407876,198.992335 C301.852341,173.530815 278.422347,154.519708 250.92379,145.343456 L306.656287,96.4532027 L261.539504,51.2 L167.859407,51.2922911 L122.697976,96.4367376 L177.6771,144.662755 C128.99328,159.736973 94.72,204.627294 94.72,257.718527 C94.72,300.863332 118.019519,340.161374 155.043609,361.01527 C158.778398,363.119118 162.62459,365.041633 166.581533,366.742303 C181.37526,373.103459 197.093582,376.32 213.366531,376.32 C222.871474,376.32 232.416297,375.134081 241.772126,372.845 L241.772126,372.845 Z" id="Fill-3" fill="#CF9080"></path>
        </g>
    </g>
</svg>